<?xml version="1.0" encoding="UTF-8"?>
<svg id="Layer_1" xmlns="http://www.w3.org/2000/svg" version="1.1" viewBox="0 0 1179.8 444.2">
  <!-- Generator: Adobe Illustrator 29.0.1, SVG Export Plug-In . SVG Version: 2.1.0 Build 192)  -->
  <defs>
    <style>
      .st0 {
        fill: none;
      }

      .st1 {
        fill: red;
      }
    </style>
  </defs>
  <g>
    <path class="st1" d="M411.8,73.3c-3.8,7.3-7.9,15.2-12.1,24.2-25.3,53.2-54.3,80.2-93.3,80.2s-32.4-9-32.4-21.9,10-21.1,25.1-21.1,21.3,4.8,21.3,9.8-1.7,3.8-3.1,3.8c-6.1,0-6.9-11.3-20-11.3s-18.4,7.7-18.4,18.8,9.2,19.6,27.4,19.6c41.1,0,57.8-28.4,82.3-78.7,3.5-7.5,7.3-14.4,10.9-20.9-6.7,1-13.6,1.7-20,1.7-32.2,0-51.4-11.1-51.4-32.4S348.1,6.9,381.9,0l.4,2.3c-32,6.7-48.5,24-48.5,43s16.9,29.9,45.5,29.9,14.2-.6,21.3-1.9c21.9-38,43.2-56.4,59.5-56.4s12.5,4.6,12.5,11.9c0,18.2-28.8,36.3-61,44.5,0,0,0,0,0,0ZM468.3,28.8c0-6.3-2.1-9.6-8.1-9.6-12.3,0-27.8,15.9-47,51.2,29.9-7.9,55.1-25.1,55.1-41.5h0Z"/>
    <path class="st1" d="M500.3,156.4c3.3-17.5,17.8-40.7,32.8-64.5,19-30.1,34.2-51.2,47.4-66.4l-.2-.2c-28.6,20.9-46.6,44.5-70.6,77.1-30.9,41.5-55.1,75.4-87.3,75.4s-26.3-8.4-26.3-23.8,4.4-15,9.8-15,3.8,1.5,3.8,3.1c0,6.5-10.6,5.9-10.6,13.4,0,12.7,8.1,20.1,23.4,20.1,30.7,0,54.3-32.8,85.2-74.3,26.1-35.1,44.5-60.3,81.2-84.2l1.5,1c-11.3,15.5-27.3,43.2-46.4,74.8-20.7,34.2-31.5,53.7-35.7,66-3.3,10-2.9,16.7,1.7,16.7s9.8-6.9,17.1-16.9c9.8-12.9,22.5-35.1,43.8-65.6,25.3-35.7,44.7-60.3,81.2-84.2l1.5,1c-17.3,22.3-32,48.9-63.9,101.5-15.7,25.9-22.5,43.6-22.5,55.1s1.9,8.8,5.8,8.8c9.4,0,18.6-13.4,36.5-35.3h2.5c-18,21.7-27.8,37.8-41.3,37.8s-13-5.9-13-15.4,7.7-30.5,20.7-51.8c24.8-40.5,49.9-75.8,65.4-93.1l-.2-.2c-28.4,20.9-47.4,43.8-70.6,77.1-21.3,30.3-34.2,52.4-43.8,65.6-7.9,11.1-13.6,18.2-19.8,18.2s-11.3-9.6-9-21.5h0Z"/>
    <path class="st1" d="M883,43.7c-11.5,19.2-42,33.6-75.6,42.6-5.4,7.9-10.9,16.3-16.1,25.1-15.7,25.9-22.5,43.9-22.5,54.9s1.9,8.8,5.8,8.8c9,0,18-12.5,36.5-35.1h2.5c-18.4,22.3-28.4,37.8-41.3,37.8s-13-5.9-13-15.4,7.7-30.5,20.7-51.8c4.4-7.3,9-14.2,13.6-21.1-3.8.8-7.5,1.7-11.3,2.3-15.9,2.9-29.7,5.4-41.5,8.1l-3.5,5.6c-27.2,45.3-61,72.2-91.5,72.2s-26.5-9.4-26.5-23.8,4.4-15,9.8-15,3.8,1.5,3.8,3.1c0,6.5-10.7,5.9-10.7,13.4,0,11.9,7.5,20.1,23.6,20.1,29.2,0,53.2-28.8,80.2-70.8.4-.4.6-1,1-1.5-21.3,5.6-35.5,11.9-44.5,21.7l-1.7-2.1c9.6-10.2,24.6-16.7,48-22.8,16.1-24.6,30.1-46.2,49.5-64.7l-.2-.2c-15,11.1-22.8,13.8-29.9,13.8s-14.8-6.1-20.7-14.2c-7.5-10.2-12.5-15.5-25.9-15.5-25.9,0-47.6,15.9-47.6,37.6s6.9,20.2,20,20.2,30.3-12.1,35.5-25.3l2.1.8c-5.2,13.6-20.7,27.1-39,27.1s-23.4-7.7-23.4-22.8c0-23,26.7-40.1,52.4-40.1s27.6,6.7,35.3,17.3c5.6,7.7,8.8,11.7,13.6,11.7,11.3,0,25.7-11.7,48.5-29l1.7,1.7c-26.7,20.3-22.1,19.6-58.3,78.3,11.5-2.5,24.4-5,39.5-7.7,4.6-.8,9.2-1.7,13.8-2.7,27.3-39.7,57.4-69.5,78.1-69.5s17.5,12.5,9.2,26.7h0ZM875.7,19.2c-15.7,0-40.5,26.1-66.2,63.7,31.5-8.6,58.7-21.7,70.2-40.5,8.3-13.6,5.8-23.2-4-23.2,0,0,0,0,0,0Z"/>
  </g>
  <g>
    <path class="st1" d="M0,371c0-8.4,4.6-14.4,9.8-14.4s3.8,1.5,3.8,3.1c0,6.7-10.9,5-10.9,13.6s2.9,6.5,7.9,6.5,15.2-5,26.1-18.8c13.8-17.1,15.7-31.1,15.7-42.8s-.2-6.3-.4-9.6c-7.7,10.4-18.4,23.4-28.4,35.7h-2.5c10.9-13.2,21.9-26.5,30.5-38.4-.2-2.3-.2-4.4-.2-6.5,0-9.2,3.5-15.5,8.1-15.5s3.8,1.5,3.8,4c0,4.8-4,10-9.8,18.4,2.1,18,3.8,41.5-8.1,57h.4c5.4-4.4,13.2-11.5,19.6-19h2.5c-5.8,6.9-12.5,13.8-20,19.8-10.4,9-24.2,18-36.3,18C3.8,382.1,0,377.1,0,371.1h0Z"/>
    <path class="st1" d="M93.3,371.9c0-4.4,1.5-8.8,4.6-13l18.6-25.9c3.8-5.6,7.9-11.3,9.2-16.1,1.5-5.4-1-8.4-5.8-8.4s-7.7,1.9-12.1,5.9c-5,4.6-17.3,18.6-23.6,28l-25.7,37.6h-9.6l43.8-64.5h-.2c-7.3,7.9-16.1,18.6-24.6,28.8h-2.5c18.2-22.1,34.9-40.1,43.6-53.2l45.5-67.7h9.6l-66,97.7h.2c2.9-3.1,5.6-6.3,7.9-8.1,5.2-4.8,9.8-6.9,15-6.9s10.4,3.5,10.4,11.9-3.1,11.7-7.3,17.8l-17.3,23.8c-5.2,7.1-7.7,11.7-7.7,15.2s1.2,4.8,4.2,4.8c5.6,0,12.1-6.1,20.1-15.9,5.4-6.3,11.3-13.4,16.3-19.4h2.5c-5.4,6.5-11.9,14.4-17.1,20.9-8.8,10-15,16.9-23.4,16.9s-8.6-4.2-8.6-10.2h0Z"/>
    <path class="st1" d="M135.3,368.8c0-5,1.7-10,4.8-16.1,4-7.3,10.2-16.3,17.1-23.4h-.2c-5.9,5.2-10.6,10.4-14.6,15h-2.5c7.3-9,18.6-19.8,29.4-27.8s18.4-10.4,23.8-10.4,10.9,5.6,7.5,15.5h.2l9.2-13.4h8.6l-34.4,51c-5.4,7.7-7.9,12.1-7.9,15.7s1.5,4.8,4.4,4.8c5.6,0,11.9-6.1,20.1-15.9,5.2-6.3,11.3-13.6,16.3-19.4h2.5c-5.6,6.5-11.9,14.4-17.3,20.9-8.6,10-14.8,16.9-23.4,16.9s-8.1-4-8.1-10.4.8-5.4,2.9-9h-.2c-3.3,3.8-7.9,9-11.9,12.5-5.2,4.6-9.8,6.9-14.2,6.9-6.9,0-11.9-5-11.9-13.4h0ZM159.9,373.8c7.1-6.5,16.9-18,24.2-28.8l9.4-13.8c6.7-9.8,10-22.5,0-22.5s-16.1,7.9-22.8,15.7c-9.8,11.5-16.3,20.2-22.8,31.3-2.1,3.5-5.6,9.8-6.5,13.6-1.7,6.5,1.7,10.2,6.5,10.2s7.7-1.9,11.9-5.6h0Z"/>
    <path class="st1" d="M247.6,371.9c0-4.6,2.3-8.6,5.2-13,3.8-6.1,7.1-10,7.1-13.6s-1.7-5.6-5.9-5.6c-6.7,0-15.9,4.6-24.4,13.6-3.6,3.8-7.3,8.1-10,12.3l-9.6,14.4h-9.6l43.8-64.5h-.2c-7.3,7.9-16.1,18.6-24.6,28.8h-2.5c18.2-22.1,35.1-40.3,43.6-53.2l45.5-67.7h9.6l-83.9,124.4h.2c1.7-1.9,6.1-6.3,7.7-7.9,21.9-21.9,37.2-33.8,49.1-33.8s9.2,2.5,9.2,8.1c0,8.6-6.9,13.4-11.1,13.4s-3.8-1.5-3.8-3.3c0-6.3,11.9-3.8,11.9-11.1s-1.9-4.8-6.3-4.8c-11.3,0-26.1,11.5-49.1,34.2h.4c5.4-3.5,10.9-5.4,15.2-5.4s10.9,3.8,10.9,10.6-2.5,9-6.9,15.2c-3.1,4.6-5.6,8.1-5.6,11.5s1.9,5,4.8,5c5.6,0,11.9-6.1,20-15.9,5.2-6.3,11.3-13.4,16.1-19.4h2.5c-5.4,6.5-11.7,14.4-17.1,20.9-8.6,10-15,16.9-23.4,16.9s-9-3.5-9-10.2h0s0,0,0,0Z"/>
    <path class="st1" d="M287.7,371.9c0-4.4,1.7-8.8,4.8-13l26.7-39.3h-.2c-7.1,7.1-15.2,16.5-21.9,24.6h-2.5c11.5-14.2,21.5-24.6,31.3-36.1h10.2l-34.7,51.4c-5,7.3-7.7,11.7-7.7,15.2s1.5,4.8,4.4,4.8c5.6,0,12.1-6.1,20-15.9,5.4-6.3,11.3-13.4,16.3-19.4h2.5c-5.6,6.5-11.9,14.4-17.3,20.9-8.6,10-14.8,16.9-23.4,16.9s-8.6-4.2-8.6-10.2h0ZM348.7,269.4c0-3.3,2.7-6.3,6.3-6.3s6.1,2.9,6.1,6.3-2.7,6.1-6.1,6.1-6.3-2.5-6.3-6.1Z"/>
    <path class="st1" d="M403.2,333c4-5.6,8.1-11.3,9.4-16.1,1.5-5.4-1.2-8.4-6.1-8.4s-7.7,1.9-12.1,5.9c-4.8,4.6-17.3,18.6-23.6,28l-25.5,37.6h-9.6l34.2-51c5-7.7,8.1-12.7,8.1-16.9s-1-4-4-4c-5.9,0-12.7,6.7-20.9,16.5-5,6.3-11.3,13.6-16.3,19.6h-2.5c5.6-6.7,11.9-14.6,17.3-20.9,7.9-9.8,15.5-17.3,23.4-17.3s8.1,4.2,8.1,10-.8,6.5-3.1,10.4h.2c3.5-4.2,8.8-10.2,12.7-13.6,5-4.8,9.6-6.9,15-6.9s10.4,3.5,10.4,11.9-3.1,11.7-7.5,17.8l-17.1,23.8c-5.4,7.1-7.9,11.7-7.9,15.2s1.5,4.8,4.4,4.8c5.6,0,12.1-6.1,20.3-15.9,5.2-6.3,11.1-13.4,15.9-19.4h2.5c-5.4,6.5-11.5,14.4-17.1,20.9-8.6,10-15,16.9-23.4,16.9s-8.6-4.2-8.6-10.2,1.7-8.8,4.8-13l18.4-25.9h0Z"/>
    <path class="st1" d="M506.2,344.3c-23.4,28.4-42.2,40.1-57.4,47.6-9,13.2-16.9,24.2-26.1,31.7-6.3,5.2-17.3,10.6-26.1,10.6s-9.8-3.1-9.8-8.1.6-4.4,1.7-6.3c6.7-11.9,29.6-16.7,49.5-25.9,5-7.1,13.6-20,17.8-26.3h-.2c-2.5,2.7-5,5.4-7.3,7.5-5.2,4.6-9.8,6.9-14.2,6.9-6.9,0-11.9-5-11.9-13.4s1.7-10,4.8-16.1c4-7.3,10.2-16.3,17.1-23.4h-.2c-5.9,5.2-10.6,10.4-14.6,15h-2.5c7.3-9,18.6-19.8,29.4-27.8,10.9-7.9,18.4-10.4,23.8-10.4s10.9,5.6,7.5,15.5h.2l9.2-13.4h8.6l-54.3,80.4c14-7.1,31.5-18.8,52.6-44.3h2.5ZM435.8,397.1c-16.5,7.5-35.5,12.3-42.4,22.1-1.5,2.3-2.7,5.2-2.7,7.9s2.3,5.2,5.9,5.2c8.6,0,18-8.6,24.2-15.5,5-5.6,10-12.5,15-19.8h0ZM470.9,345l9.4-13.8c6.7-9.8,10-22.5,0-22.5s-16.1,7.9-22.8,15.7c-9.8,11.5-16.3,20.2-22.8,31.3-2.1,3.5-5.6,9.8-6.5,13.6-1.7,6.5,1.7,10.2,6.5,10.2s7.7-1.9,11.9-5.6c7.1-6.5,16.9-18,24.2-28.8h0Z"/>
    <path class="st1" d="M646.5,371.9c0-4.4,1.7-8.8,4.8-13l18.4-25.9c4-5.6,8.1-11.3,9.4-16.1,1.5-5.4-1.2-8.4-5.8-8.4s-7.9,1.9-12.1,5.9c-5,4.6-17.5,18.6-23.8,28l-25.5,37.6h-9.6l31.5-47c3.8-5.6,7.9-11.3,9.2-16.1,1.5-5.4-1-8.4-5.8-8.4s-7.7,1.9-12.1,5.9c-4.8,4.6-17.3,18.6-23.6,28l-25.5,37.6h-9.6l34.2-51c5-7.7,8.1-12.7,8.1-16.9s-1-4-4-4c-5.8,0-12.7,6.7-20.9,16.5-5,6.3-11.3,13.6-16.3,19.6h-2.5c5.6-6.7,11.9-14.6,17.3-20.9,7.9-9.8,15.5-17.3,23.4-17.3s8.1,4.2,8.1,10-.8,6.5-3.1,10.4h.2c3.5-4.2,8.8-10.2,12.7-13.6,5-4.8,9.6-6.9,15-6.9s10.4,3.5,10.4,11.9-.8,5.2-2.5,8.6h.2c3.8-4.2,8.8-10.2,12.7-13.6,5-4.8,9.6-6.9,15-6.9s10.4,3.5,10.4,11.9-3.1,11.7-7.5,17.8l-17.1,23.8c-5.4,7.1-7.9,11.7-7.9,15.2s1.5,4.8,4.4,4.8c5.6,0,12.1-6.1,20.2-15.9,5.2-6.3,11.1-13.4,15.9-19.4h2.5c-5.4,6.5-11.5,14.4-17.1,20.9-8.6,10-15,16.9-23.4,16.9s-8.6-4.2-8.6-10.2h0s0,0,0,0Z"/>
    <path class="st1" d="M771.6,344.3c-23.4,28.4-42.2,40.1-57.4,47.6-9,13.2-16.9,24.2-26.1,31.7-6.3,5.2-17.3,10.6-26.1,10.6s-9.8-3.1-9.8-8.1.6-4.4,1.7-6.3c6.7-11.7,29.2-16.7,49.3-25.7l20-29.2h-.2c-2.9,3.3-6.7,7.5-9.6,10.2-5.2,4.8-9.6,6.9-15,6.9s-10.4-3.5-10.4-11.9,3.3-11.7,7.3-17.8l22.5-32.8h-.2c-7.1,7.1-15.2,16.5-21.9,24.6h-2.5c11.5-14.2,21.5-24.6,31.3-36.1h10.2l-31.5,47.2c-3.8,5.4-7.9,11.1-9.2,15.9-1.5,5.4,1.2,8.4,5.8,8.4s7.9-1.9,12.1-5.9c5-4.6,17.3-18.6,23.8-28l25.5-37.6h9.6l-54.3,80.4c14-7.1,31.7-18.8,52.6-44.3h2.5ZM701.2,397.1c-16.5,7.7-35.5,12.3-42.4,22.1-1.5,2.3-2.7,5.2-2.7,7.9s2.3,5.2,6.1,5.2c8.6,0,17.8-8.6,24-15.5,5-5.6,10-12.3,15-19.8h0Z"/>
    <path class="st1" d="M858.4,371.9c0-4.4,1.5-8.8,4.6-13l18.6-25.9c3.8-5.6,7.9-11.3,9.2-16.1,1.5-5.4-1-8.4-5.8-8.4s-7.7,1.9-12.1,5.9c-5,4.6-17.3,18.6-23.6,28l-25.7,37.6h-9.6l43.8-64.5h-.2c-7.3,7.9-16.1,18.6-24.6,28.8h-2.5c18.2-22.1,34.9-40.1,43.6-53.2l45.5-67.7h9.6l-66,97.7h.2c2.9-3.1,5.6-6.3,7.9-8.1,5.2-4.8,9.8-6.9,15-6.9s10.4,3.5,10.4,11.9-3.1,11.7-7.3,17.8l-17.3,23.8c-5.2,7.1-7.7,11.7-7.7,15.2s1.2,4.8,4.2,4.8c5.6,0,12.1-6.1,20-15.9,5.4-6.3,11.3-13.4,16.3-19.4h2.5c-5.4,6.5-11.9,14.4-17.1,20.9-8.8,10-15,16.9-23.4,16.9s-8.6-4.2-8.6-10.2h0Z"/>
    <path class="st1" d="M969.3,344.3c-18,21.9-33.6,37.8-52.4,37.8s-16.5-4.4-16.5-13.8,1.9-9.8,4.8-15.7c4-7.3,10.2-16.3,17.1-23.4h-.2c-5.8,5.2-10.7,10.4-14.6,15h-2.5c7.3-9,18.6-19.8,29.4-27.8s18-10.4,23.2-10.4c8.1,0,10.7,8.1,5.6,18.2-8.3,16.1-28,24.6-45.7,24.6h-.4c-1.2,2.1-2.7,4.4-4,6.7-2.7,4.6-5.6,10.4-5.6,15s4.2,8.8,11.1,8.8c16.5,0,32.8-16.3,48.2-35.1h2.5,0ZM918.6,346.8c16.3-.2,29.7-6.3,39.9-24.4,5.4-9.2,3.8-14.2-.8-14.2s-13,6.1-21.7,16.1c-7.1,8.4-12.5,15.2-17.3,22.5h0Z"/>
    <path class="st1" d="M962.2,368.8c0-5,1.7-10,4.8-16.1,4-7.3,10.2-16.3,17.1-23.4h-.2c-5.8,5.2-10.7,10.4-14.6,15h-2.5c7.3-9,18.6-19.8,29.4-27.8s18.4-10.4,23.8-10.4,10.9,5.6,7.5,15.5h.2l9.2-13.4h8.6l-34.5,51c-5.4,7.7-7.9,12.1-7.9,15.7s1.5,4.8,4.4,4.8c5.6,0,11.9-6.1,20.1-15.9,5.2-6.3,11.3-13.6,16.3-19.4h2.5c-5.6,6.5-11.9,14.4-17.3,20.9-8.6,10-14.8,16.9-23.4,16.9s-8.1-4-8.1-10.4.8-5.4,2.9-9h-.2c-3.3,3.8-7.9,9-11.9,12.5-5.2,4.6-9.8,6.9-14.2,6.9-6.9,0-11.9-5-11.9-13.4h0ZM986.8,373.8c7.1-6.5,16.9-18,24.2-28.8l9.4-13.8c6.7-9.8,10-22.5,0-22.5s-16.1,7.9-22.8,15.7c-9.8,11.5-16.3,20.2-22.8,31.3-2.1,3.5-5.6,9.8-6.5,13.6-1.7,6.5,1.7,10.2,6.5,10.2s7.7-1.9,11.9-5.6h0Z"/>
    <path class="st1" d="M1039.2,368.8c0-5,1.7-10,4.8-16.1,4-7.3,10.2-16.3,17.1-23.4h-.2c-5.8,5.2-10.7,10.4-14.6,15h-2.5c7.3-9,18.6-19.8,29.4-27.8s18.4-10.4,23.8-10.4,10.4,5.6,8.1,13.6h.2l64.7-96.3h9.6l-91.7,135.7c-5.2,7.5-7.9,12.1-7.9,15.7s1.5,4.8,4.4,4.8c5.6,0,11.9-6.1,20.1-15.9,5.2-6.3,11.3-13.6,16.3-19.4h2.5c-5.6,6.5-11.9,14.4-17.3,20.9-8.6,10-14.8,16.9-23.4,16.9s-8.1-4-8.1-10.4.8-5.6,2.9-9h-.2c-3.3,3.8-7.9,9-11.9,12.5-5.2,4.6-9.8,6.9-14.2,6.9-6.9,0-11.9-5-11.9-13.4h0ZM1063.9,373.8c7.1-6.5,16.9-18,24.2-28.8l9.4-13.8c6.7-9.8,10-22.5,0-22.5s-16.1,7.9-22.8,15.7c-9.8,11.5-16.3,20.2-22.8,31.3-2.1,3.5-5.6,9.8-6.5,13.6-1.7,6.5,1.7,10.2,6.5,10.2s7.7-1.9,11.9-5.6h0Z"/>
  </g>
  <rect class="st0" x="439.7" y="1082.2" width="3.7" height="9.3"/>
</svg>